<?xml version="1.0" encoding="iso-8859-1"?>
<!-- Uploaded to: SVG Repo, www.svgrepo.com, Generator: SVG Repo Mixer Tools -->
<svg version="1.1" id="Layer_1" xmlns="http://www.w3.org/2000/svg" xmlns:xlink="http://www.w3.org/1999/xlink" 
	 viewBox="0 0 512 512" xml:space="preserve">
<rect x="141.895" y="102.079" style="fill:#BDBCBC;" width="229.278" height="409.921"/>
<g>
	<rect x="141.895" y="102.079" style="fill:#A7A6A6;" width="75.357" height="409.921"/>
	<rect x="294.747" y="102.079" style="fill:#A7A6A6;" width="76.426" height="409.921"/>
</g>
<rect x="234.354" y="144.835" style="fill:#4FC4D4;" width="42.756" height="34.205"/>
<path style="fill:#918F90;" d="M277.11,187.056h-42.756c-4.428,0-8.017-3.589-8.017-8.017v-34.205c0-4.427,3.588-8.017,8.017-8.017
	h42.756c4.428,0,8.017,3.589,8.017,8.017v34.205C285.127,183.467,281.537,187.056,277.11,187.056z M242.371,171.023h26.722v-18.171
	h-26.722V171.023z"/>
<rect x="234.354" y="238.897" style="fill:#4FC4D4;" width="42.756" height="34.205"/>
<path style="fill:#918F90;" d="M277.11,281.119h-42.756c-4.428,0-8.017-3.589-8.017-8.017v-34.205c0-4.427,3.588-8.017,8.017-8.017
	h42.756c4.428,0,8.017,3.589,8.017,8.017v34.205C285.127,277.529,281.537,281.119,277.11,281.119z M242.371,265.085h26.722v-18.171
	h-26.722V265.085z"/>
<rect x="234.354" y="332.96" style="fill:#4FC4D4;" width="42.756" height="34.205"/>
<path style="fill:#918F90;" d="M277.11,375.181h-42.756c-4.428,0-8.017-3.589-8.017-8.017V332.96c0-4.427,3.588-8.017,8.017-8.017
	h42.756c4.428,0,8.017,3.589,8.017,8.017v34.205C285.127,371.592,281.537,375.181,277.11,375.181z M242.371,359.148h26.722v-18.171
	h-26.722V359.148z"/>
<rect x="234.354" y="427.023" style="fill:#4FC4D4;" width="42.756" height="34.205"/>
<path style="fill:#918F90;" d="M277.11,469.244h-42.756c-4.428,0-8.017-3.589-8.017-8.017v-34.205c0-4.427,3.588-8.017,8.017-8.017
	h42.756c4.428,0,8.017,3.589,8.017,8.017v34.205C285.127,465.655,281.537,469.244,277.11,469.244z M242.371,453.211h26.722v-18.171
	h-26.722V453.211z"/>
<path style="fill:#FFD791;" d="M505.109,96.411L411.047,2.348c-3.132-3.131-8.207-3.131-11.338,0L305.647,96.41
	c-1.504,1.504-2.348,3.543-2.348,5.669V512h196.142c4.427,0,8.017-3.589,8.017-8.017V102.078
	C507.457,99.952,506.612,97.914,505.109,96.411z"/>
<g>
	<path style="fill:#6DDAE1;" d="M405.377,67.874c-18.891,0-34.205,15.314-34.205,34.205v76.96h68.409v-76.96
		C439.582,83.189,424.268,67.874,405.377,67.874z"/>
	<rect x="345.519" y="238.897" style="fill:#6DDAE1;" width="42.756" height="34.205"/>
</g>
<path style="fill:#FBE9C8;" d="M388.275,281.119h-42.756c-4.428,0-8.017-3.589-8.017-8.017v-34.205c0-4.427,3.588-8.017,8.017-8.017
	h42.756c4.428,0,8.017,3.589,8.017,8.017v34.205C396.292,277.529,392.702,281.119,388.275,281.119z M353.536,265.085h26.722v-18.171
	h-26.722V265.085z"/>
<rect x="422.479" y="238.897" style="fill:#6DDAE1;" width="42.756" height="34.205"/>
<path style="fill:#FBE9C8;" d="M465.235,281.119h-42.756c-4.428,0-8.017-3.589-8.017-8.017v-34.205c0-4.427,3.588-8.017,8.017-8.017
	h42.756c4.428,0,8.017,3.589,8.017,8.017v34.205C473.252,277.529,469.663,281.119,465.235,281.119z M430.496,265.085h26.722v-18.171
	h-26.722V265.085z"/>
<rect x="345.519" y="332.96" style="fill:#6DDAE1;" width="42.756" height="34.205"/>
<path style="fill:#FBE9C8;" d="M388.275,375.181h-42.756c-4.428,0-8.017-3.589-8.017-8.017V332.96c0-4.427,3.588-8.017,8.017-8.017
	h42.756c4.428,0,8.017,3.589,8.017,8.017v34.205C396.292,371.592,392.702,375.181,388.275,375.181z M353.536,359.148h26.722v-18.171
	h-26.722V359.148z"/>
<rect x="422.479" y="332.96" style="fill:#6DDAE1;" width="42.756" height="34.205"/>
<g>
	<path style="fill:#FBE9C8;" d="M465.235,375.181h-42.756c-4.428,0-8.017-3.589-8.017-8.017V332.96c0-4.427,3.588-8.017,8.017-8.017
		h42.756c4.428,0,8.017,3.589,8.017,8.017v34.205C473.252,371.592,469.663,375.181,465.235,375.181z M430.496,359.148h26.722
		v-18.171h-26.722V359.148z"/>
	<path style="fill:#FBE9C8;" d="M405.377,59.858c-23.28,0-42.221,18.941-42.221,42.221v76.96c0,4.427,3.588,8.017,8.017,8.017
		h68.409c4.428,0,8.017-3.589,8.017-8.017v-76.96C447.599,78.798,428.658,59.858,405.377,59.858z M405.377,75.891
		c11.645,0,21.534,7.642,24.928,18.171h-49.856C383.843,83.533,393.733,75.891,405.377,75.891z M379.189,110.096h18.171v60.927
		h-18.171V110.096z M413.394,171.023v-60.927h18.171v60.927H413.394z"/>
</g>
<path style="fill:#FFD791;" d="M206.354,96.411L112.291,2.348c-3.132-3.131-8.207-3.131-11.338,0L6.89,96.411
	c-1.504,1.503-2.348,3.541-2.348,5.667v401.905c0,4.427,3.589,8.017,8.017,8.017h196.142V102.078
	C208.701,99.952,207.856,97.914,206.354,96.411z"/>
<g>
	<path style="fill:#6DDAE1;" d="M106.621,67.874c-18.891,0-34.205,15.314-34.205,34.205v76.96h68.409v-76.96
		C140.826,83.189,125.512,67.874,106.621,67.874z"/>
	<rect x="46.763" y="238.897" style="fill:#6DDAE1;" width="42.756" height="34.205"/>
</g>
<path style="fill:#FBE9C8;" d="M89.519,281.119H46.763c-4.428,0-8.017-3.589-8.017-8.017v-34.205c0-4.427,3.588-8.017,8.017-8.017
	h42.756c4.428,0,8.017,3.589,8.017,8.017v34.205C97.536,277.529,93.947,281.119,89.519,281.119z M54.78,265.085h26.722v-18.171
	H54.78V265.085z"/>
<rect x="123.724" y="238.897" style="fill:#6DDAE1;" width="42.756" height="34.205"/>
<path style="fill:#FBE9C8;" d="M166.479,281.119h-42.756c-4.428,0-8.017-3.589-8.017-8.017v-34.205c0-4.427,3.588-8.017,8.017-8.017
	h42.756c4.428,0,8.017,3.589,8.017,8.017v34.205C174.496,277.529,170.907,281.119,166.479,281.119z M131.74,265.085h26.722v-18.171
	H131.74V265.085z"/>
<rect x="46.763" y="332.96" style="fill:#6DDAE1;" width="42.756" height="34.205"/>
<path style="fill:#FBE9C8;" d="M89.519,375.181H46.763c-4.428,0-8.017-3.589-8.017-8.017V332.96c0-4.427,3.588-8.017,8.017-8.017
	h42.756c4.428,0,8.017,3.589,8.017,8.017v34.205C97.536,371.592,93.947,375.181,89.519,375.181z M54.78,359.148h26.722v-18.171
	H54.78V359.148z"/>
<rect x="123.724" y="332.96" style="fill:#6DDAE1;" width="42.756" height="34.205"/>
<g>
	<path style="fill:#FBE9C8;" d="M166.479,375.181h-42.756c-4.428,0-8.017-3.589-8.017-8.017V332.96c0-4.427,3.588-8.017,8.017-8.017
		h42.756c4.428,0,8.017,3.589,8.017,8.017v34.205C174.496,371.592,170.907,375.181,166.479,375.181z M131.74,359.148h26.722v-18.171
		H131.74V359.148z"/>
	<path style="fill:#FBE9C8;" d="M106.621,59.858c-23.281,0-42.221,18.941-42.221,42.221v76.96c0,4.427,3.588,8.017,8.017,8.017
		h68.409c4.428,0,8.017-3.589,8.017-8.017v-76.96C148.843,78.798,129.902,59.858,106.621,59.858z M106.621,75.891
		c11.645,0,21.534,7.642,24.928,18.171H81.694C85.088,83.533,94.977,75.891,106.621,75.891z M80.434,110.096h18.171v60.927H80.434
		V110.096z M114.638,171.023v-60.927h18.171v60.927H114.638z"/>
</g>
<g>
	<path style="fill:#F8BE73;" d="M4.542,443.056v60.927c0,4.427,3.589,8.017,8.017,8.017h196.142v-68.944H4.542z"/>
	<path style="fill:#F8BE73;" d="M303.298,443.056V512H499.44c4.427,0,8.017-3.589,8.017-8.017v-60.927H303.298z"/>
</g>
<path style="fill:#918F90;" d="M448.133,512c-4.428,0-8.017-3.589-8.017-8.017v-51.307c0-4.427,3.588-8.017,8.017-8.017
	c4.428,0,8.017,3.589,8.017,8.017v51.307C456.15,508.41,452.56,512,448.133,512z"/>
<path style="fill:#C4DF64;" d="M448.133,393.353c-23.281,0-42.221,18.941-42.221,42.221c0,23.281,18.941,42.221,42.221,42.221
	c23.28,0,42.221-18.941,42.221-42.221C490.354,412.293,471.413,393.353,448.133,393.353z"/>
<path style="fill:#96CA62;" d="M465.77,460.158c-23.28,0-42.221-18.941-42.221-42.221c0-7.109,1.774-13.81,4.89-19.693
	c-13.384,7.09-22.527,21.159-22.527,37.33c0,23.281,18.941,42.221,42.221,42.221c16.171,0,30.241-9.143,37.331-22.528
	C479.58,458.384,472.879,460.158,465.77,460.158z"/>
<path style="fill:#918F90;" d="M363.156,512c-4.428,0-8.017-3.589-8.017-8.017v-51.307c0-4.427,3.588-8.017,8.017-8.017
	s8.017,3.589,8.017,8.017v51.307C371.173,508.41,367.583,512,363.156,512z"/>
<path style="fill:#C4DF64;" d="M363.156,393.353c-23.28,0-42.221,18.941-42.221,42.221c0,23.281,18.941,42.221,42.221,42.221
	s42.221-18.941,42.221-42.221C405.377,412.293,386.436,393.353,363.156,393.353z"/>
<path style="fill:#96CA62;" d="M380.793,460.158c-23.281,0-42.221-18.941-42.221-42.221c0-7.109,1.774-13.81,4.89-19.693
	c-13.384,7.09-22.527,21.159-22.527,37.33c0,23.281,18.941,42.221,42.221,42.221c16.171,0,30.241-9.143,37.331-22.528
	C394.603,458.384,387.902,460.158,380.793,460.158z"/>
<path style="fill:#918F90;" d="M149.377,512c-4.428,0-8.017-3.589-8.017-8.017v-51.307c0-4.427,3.588-8.017,8.017-8.017
	c4.428,0,8.017,3.589,8.017,8.017v51.307C157.394,508.41,153.805,512,149.377,512z"/>
<path style="fill:#C4DF64;" d="M149.377,393.353c-23.28,0-42.221,18.941-42.221,42.221c0,23.281,18.941,42.221,42.221,42.221
	s42.221-18.941,42.221-42.221C191.598,412.293,172.658,393.353,149.377,393.353z"/>
<path style="fill:#96CA62;" d="M167.014,460.158c-23.281,0-42.221-18.941-42.221-42.221c0-7.109,1.774-13.81,4.89-19.693
	c-13.384,7.09-22.527,21.159-22.527,37.33c0,23.281,18.941,42.221,42.221,42.221c16.171,0,30.241-9.143,37.331-22.528
	C180.824,458.384,174.123,460.158,167.014,460.158z"/>
<path style="fill:#918F90;" d="M64.4,512c-4.428,0-8.017-3.589-8.017-8.017v-51.307c0-4.427,3.588-8.017,8.017-8.017
	c4.428,0,8.017,3.589,8.017,8.017v51.307C72.417,508.41,68.828,512,64.4,512z"/>
<path style="fill:#C4DF64;" d="M64.4,393.353c-23.28,0-42.221,18.941-42.221,42.221c0,23.281,18.941,42.221,42.221,42.221
	s42.221-18.941,42.221-42.221C106.621,412.293,87.681,393.353,64.4,393.353z"/>
<path style="fill:#96CA62;" d="M82.037,460.158c-23.281,0-42.221-18.941-42.221-42.221c0-7.109,1.774-13.81,4.89-19.693
	c-13.384,7.089-22.527,21.159-22.527,37.33c0,23.281,18.941,42.221,42.221,42.221c16.171,0,30.241-9.143,37.331-22.528
	C95.847,458.384,89.146,460.158,82.037,460.158z"/>
</svg>