<?xml version="1.0" encoding="iso-8859-1"?>
<!-- Uploaded to: SVG Repo, www.svgrepo.com, Generator: SVG Repo Mixer Tools -->
<svg version="1.1" id="Layer_1" xmlns="http://www.w3.org/2000/svg" xmlns:xlink="http://www.w3.org/1999/xlink" 
	 viewBox="0 0 392.598 392.598" xml:space="preserve">
<path style="fill:#FFFFFF;" d="M206.222,169.697H32.711c-6.012,0-10.925,4.848-10.925,10.925v152.372h184.372V169.697H206.222z"/>
<path style="fill:#194F82;" d="M359.822,147.911h-68.461v-43.766h39.046c7.887-0.323,12.994-7.434,10.279-14.61l-29.543-82.36
	C309.592,2.844,305.519,0,300.865,0h-40.792c-4.655,0-8.727,2.844-10.279,7.176l-29.543,82.36
	c-1.616,8.469,1.875,13.317,10.279,14.61h39.046v43.766H32.711C14.675,147.911,0,162.586,0,180.622v201.051
	c0,6.012,4.848,10.925,10.925,10.925s10.925-4.848,10.925-10.925v-26.828h184.372v26.828c0,6.012,4.848,10.925,10.925,10.925
	h164.525c6.012,0,10.925-4.848,10.925-10.925V180.622C392.533,162.586,377.859,147.911,359.822,147.911z M206.222,332.994H21.786
	V180.558c0-6.012,4.848-10.925,10.925-10.925h173.446v163.297h0.065V332.994z M246.044,82.36l21.721-60.509h25.406l21.721,60.509
	H246.044z M370.747,370.747H228.008V256.905h142.739V370.747z M370.747,235.119H228.008v-65.422h131.814
	c6.012,0,10.925,4.848,10.925,10.925V235.119L370.747,235.119z"/>
<path style="fill:#56ACE0;" d="M43.572,191.483v12.606h44.477c6.012,0,10.925,4.848,10.925,10.925
	c0,6.077-4.848,10.925-10.925,10.925H43.572v18.36h17.713c6.012,0,10.925,4.848,10.925,10.925c0,6.012-4.848,10.925-10.925,10.925
	H43.572v45.059h140.8V191.612h-140.8V191.483z"/>
<g>
	<path style="fill:#194F82;" d="M39.499,127.03h98.133c6.012,0,10.925-4.848,10.925-10.925c0-6.012-4.848-10.925-10.925-10.925
		H39.499c-6.012,0-10.925,4.848-10.925,10.925C28.574,122.182,33.552,127.03,39.499,127.03z"/>
	<path style="fill:#194F82;" d="M39.499,93.673h98.133c6.012,0,10.925-4.848,10.925-10.925c0-6.012-4.848-10.925-10.925-10.925
		H39.499c-6.012,0-10.925,4.848-10.925,10.925C28.574,88.76,33.552,93.673,39.499,93.673z"/>
	<path style="fill:#194F82;" d="M39.499,60.186h98.133c6.012,0,10.925-4.848,10.925-10.925s-4.848-10.925-10.925-10.925H39.499
		c-5.947-0.065-10.925,4.848-10.925,10.796S33.552,60.186,39.499,60.186z"/>
</g>
<g>
	<rect x="228.008" y="256.905" style="fill:#FFC10D;" width="142.739" height="113.842"/>
	<path style="fill:#FFC10D;" d="M370.747,180.558c0-6.012-4.848-10.925-10.925-10.925H228.008v65.422h142.739V180.558z"/>
</g>
<polygon style="fill:#56ACE0;" points="314.958,82.36 293.172,21.786 267.766,21.786 246.044,82.36 "/>
<g>
	<path style="fill:#194F82;" d="M308.945,191.483H289.81c-6.012,0-10.925,4.848-10.925,10.925s4.849,10.925,10.925,10.925h19.135
		c6.012,0,10.925-4.848,10.925-10.925S314.958,191.483,308.945,191.483z"/>
	<path style="fill:#194F82;" d="M260.719,340.558c6.012,0,10.925-4.848,10.925-10.925V298.02c0-6.012-4.848-10.925-10.925-10.925
		c-6.077,0-10.925,4.848-10.925,10.925v31.612C249.794,335.644,254.707,340.558,260.719,340.558z"/>
</g>
</svg>